<svg width="46" height="44" viewBox="0 0 46 44" fill="none" xmlns="http://www.w3.org/2000/svg">
<path d="M12.75 28.05H35.7C37.1025 28.05 38.25 29.1975 38.25 30.6C38.25 32.0025 37.1025 33.15 35.7 33.15H10.2C8.7975 33.15 7.65 32.0025 7.65 30.6V5.1H2.55C1.1475 5.1 0 3.9525 0 2.55C0 1.1475 1.1475 0 2.55 0H10.2C11.6025 0 12.75 1.1475 12.75 2.55V7.65H45.9L35.7 25.5H12.75V28.05ZM11.475 35.7C13.5915 35.7 15.3 37.4085 15.3 39.525C15.3 41.6415 13.5915 43.35 11.475 43.35C9.3585 43.35 7.65 41.6415 7.65 39.525C7.65 37.4085 9.3585 35.7 11.475 35.7ZM34.425 35.7C36.5415 35.7 38.25 37.4085 38.25 39.525C38.25 41.6415 36.5415 43.35 34.425 43.35C32.3085 43.35 30.6 41.6415 30.6 39.525C30.6 37.4085 32.3085 35.7 34.425 35.7Z" fill="#2CC0FF"/>
</svg>
