<svg width="461" height="1001" viewBox="0 0 461 1001" fill="none" xmlns="http://www.w3.org/2000/svg">
<path d="M680.198 322.94C680.759 323.777 681.532 324.424 682.539 324.478C692.12 326.61 697.836 332.968 700.803 341.598C703.59 349.814 702.339 358.014 697.484 365.615C693.075 372.434 686.804 376.329 678.671 377.301C676.837 377.605 674.98 378.311 672.319 378.974C678.154 383.121 683.642 386.24 686.739 392.457C689.837 398.674 689.288 405.097 690.148 411.596C691.106 408.825 692.848 406.499 694.187 404.152C696.184 400.832 698.765 397.947 702.286 396.323C705.808 394.699 709.151 392.661 713.233 391.874C722.395 390.555 729.493 393.762 736.238 399.773C746.658 408.805 747.121 426.373 738.712 436.202C734.39 441.413 729.104 445.765 721.598 446.367C719.371 446.448 717.303 447.344 713.835 447.963C729.578 455.671 734.957 468.262 730.897 483.569C728.339 493.512 722.891 500.88 702.499 504.415C709.162 508.203 714.372 512.72 717.045 519.317C719.909 526.126 719.909 533.587 717.939 540.134C716.426 545.698 712.899 551.153 707.466 554.489C702.458 557.445 697.058 560.177 690.624 559.627C692.35 561.334 693.46 563.209 695.409 564.524C699.498 567.367 702.1 571.54 704.065 576.284C705.862 580.414 706.249 584.468 706.211 588.902C706.189 596.765 702.047 602.389 697.121 607.566C692.195 612.744 686.18 615.645 678.717 615.443C678.112 615.41 677.508 615.378 677.062 616.16C688.227 622.612 694.999 631.85 694.875 645.354C698.87 638.714 703.595 633.525 710.807 630.891C718.221 628.267 725.886 628.48 732.74 632.48C744.879 639.59 748.712 650.887 744.995 663.591C741.512 675.703 730.794 683.391 715.551 681.356C708.535 680.372 702.868 676.839 698.719 671.372C694.56 666.106 692.883 659.764 693.264 652.727C690.161 657.802 686.89 662.263 682.062 665.631C677.032 668.989 671.496 670.504 664.773 671.552C672.008 675.976 677.386 681.106 679.21 688.464C681.034 695.822 681.002 703.886 676.414 710.292C668.107 721.941 658.973 726.488 643.279 721.606C631.357 717.937 625.276 707.122 626.386 694.076C627.485 681.23 635.982 669.793 653.369 669.523C653.445 668.116 652.895 667.078 651.719 666.41C643.276 661.92 639.65 654.263 637.701 645.487C637.532 644.873 637.363 644.259 637.037 642.83C634.146 647.714 630.336 650.936 626.324 654.147C622.089 657.749 616.45 657.444 611.453 660.198C619.45 665.47 623.925 672.367 625.068 681.099C626.413 689.843 623.975 697.575 618.178 703.915C612.359 710.658 604.352 713.048 595.424 713.775C603.073 718.02 608.408 723.954 610.177 732.317C611.293 737.822 611.179 743.664 608.67 748.972C602.237 763.344 590.092 767.526 575.52 764.318C565.737 762.176 557.506 750.036 557.32 738.532C557.167 726.425 564.319 713.705 584.243 711.355C581.036 707.149 575.887 705.257 573.116 700.469C570.535 695.894 568.983 690.97 567.911 684.661C565.848 689.188 563.077 691.861 560.328 694.132C556.719 697.364 552.359 699.548 547.449 700.694C544.989 701.368 544.521 702.552 546.246 704.259C547.972 705.965 549.698 707.672 551.01 709.557C556.258 717.1 557.859 724.849 554.74 733.956C552.068 742.281 546.526 747.627 539.058 751.256C529.118 755.759 519.717 754.041 510.958 747.921C507.844 745.736 505.612 742.187 503.57 738.85C500.778 734.465 500.244 729.395 499.16 723.287C493.141 737.48 482.744 742.966 468.59 743.209C472.847 746.666 477.986 748.758 480.768 753.345C483.55 757.932 485.314 762.665 485.423 768.115C485.521 773.766 483.829 778.918 480.557 783.378C473.802 792.49 462.017 797.499 451.527 793.503C437.668 788.317 430.993 777.269 433.366 763.283C435.107 753.496 441.536 742.955 462.836 741.285C456.767 737.73 451.067 734.8 447.958 728.785C444.839 722.97 443.766 716.661 443.532 709.792C440.587 715.682 437.452 721.36 431.616 724.674C425.792 727.787 419.82 729.884 412.749 729.904C425.896 737.068 431.999 747.48 428.777 762.228C420.515 780.533 408.277 782.694 397.096 780.275C385.311 777.822 377.831 766.731 376.965 756.602C376.213 748.092 380.018 741.241 385.983 735.514C392.162 729.597 400.082 728.816 408.193 728.246C401.051 725.844 395.629 721.518 392.117 715.48C388.404 709.431 387.778 702.34 388.562 695.325C386.972 694.836 386.929 695.64 386.896 696.243C384.86 703.997 379.542 708.952 372.869 712.825C365.792 716.677 358.296 717.078 350.986 714.061C344.469 711.289 339.047 706.963 335.982 700.143C334.164 696.415 333.766 692.562 332.966 688.688C332.628 687.46 332.906 686.063 331.583 684.379C328.241 693.877 321.099 698.935 312.297 701.08C306.571 702.383 300.327 702.045 295.052 698.735C283.125 691.436 278.546 682.719 281.332 668.553C283.809 656.387 295.937 648.776 306.644 648.75C315.337 648.616 322.202 652.415 327.526 658.551C333.041 664.898 333.613 672.995 333.368 681.249C338.539 667.817 348.196 661.08 362.414 659.631C352.414 654.049 346.371 646.262 344.955 635.095C342.718 635.377 341.613 637.132 340.53 638.485C334.265 646.01 319.758 649.056 310.835 645.952C297.368 640.989 289.67 626.458 292.794 613.52C295.172 603.163 301.437 595.638 312.286 592.999C313.93 592.483 315.596 591.565 317.408 591.663C318.013 591.696 318.639 591.326 318.884 590.533C318.927 589.729 318.546 589.305 317.751 589.06C310.038 586.021 306.346 579.571 303.091 572.539C302.192 570.474 302.927 568.094 301.828 566.018C300.608 566.154 299.568 566.702 298.91 567.675C293.674 574.852 286.249 577.677 277.915 578.638C272.019 579.327 266.712 576.62 261.829 573.533C253.619 568.451 250.015 560.392 249.9 551.312C249.775 542.433 253.019 534.744 260.797 529.116C265.849 525.356 271.374 524.042 277.079 523.141C278.097 522.994 279.093 523.25 279.975 521.886C265.5 516.868 260.66 505.516 259.674 490.138C255.804 498.196 251.259 503.798 243.632 506.611C236.017 509.224 228.363 508.81 221.7 505.022C211.52 499.027 205.641 488.223 208.955 475.497C212.248 463.174 221.915 456.236 234.659 455.917C239.716 455.787 244.25 457.848 248.562 460.299C253.467 462.984 256.069 467.157 258.236 471.912C260.212 476.456 260.544 481.515 260.877 486.574C264.023 480.695 266.978 474.604 273.206 471.512C279.019 468.601 285.023 465.901 292.073 466.282C286.585 463.162 281.479 460.466 278.147 454.842C274.995 449.63 272.671 444.06 272.202 437.784C269.034 444.065 264.925 449.085 258.305 451.954C251.888 454.833 245.366 455.891 238.85 453.119C222.65 446.395 219.497 433.723 221.505 422.741C224.003 410.173 235.707 402.942 245.451 402.058C253.572 401.287 260.257 404.673 265.837 409.815C271.608 415.168 273.23 422.515 274.025 430.22C276.545 424.71 280.421 420.282 284.656 416.68C289.103 412.888 295.178 412.612 300.948 410.504C289.881 402.243 283.544 392.423 287.316 378.714C291.577 363.418 304.604 357.872 314.304 357.791C321.789 357.591 328.06 361.157 333.45 366.086C339.029 371.227 340.472 378.161 342.53 384.927C344.321 385.427 343.995 383.998 344.632 383.427C348.785 377.603 354.07 373.251 360.668 370.785C362.11 370.258 363.52 370.334 364.941 370.21C366.16 370.074 367.369 370.139 367.646 368.743C368.136 367.156 366.938 366.89 365.964 366.232C360.934 362.129 357.156 357.287 355.702 350.554C353.9 342.794 354.694 335.578 358.499 328.726C362.07 322.467 367.513 318.93 374.121 316.263C379.499 313.932 384.905 314.83 390.131 315.314C392.537 315.646 394.856 317.586 397.208 318.923C405.248 323.391 409.5 330.678 411.248 339.444C411.406 340.259 411.362 341.063 412.135 341.71C415.385 337.651 419.206 334.228 423.229 330.816C427.464 327.214 433.272 328.133 437.676 325.145C423.707 314.509 421.327 302.483 424.669 292.985C430.194 276.75 443.231 271.002 455.854 272.895C467.27 274.722 478.413 281.576 480.886 303.084C488.56 288.174 500.547 283.177 516.17 285.635C528.173 291.527 536.802 300.06 536.601 314.97C543.9 303.267 553.345 296.72 567.389 298.488C581.837 300.278 588.81 309.527 592.524 323.037C599.649 314.55 607.64 308.731 619.131 309.151C615.827 306.754 613.137 304.189 610.459 301.423C606.425 297.575 604.672 292.641 604.149 287.37C603.931 283.93 604.116 280.512 604.693 277.317C605.526 273.128 607.757 269.216 610.751 266.151C620.614 255.595 636.39 255.238 647.256 263.488C656.374 270.434 659.08 283.889 654.889 294.148C651.613 302.439 645.298 307.139 637.258 310.132C635.816 310.659 634.417 310.381 632.996 310.506C631.575 310.631 629.997 309.941 628.701 311.484C635.005 314.446 639.398 319.12 642.708 325.147C646.018 331.173 646.487 337.449 646.329 344.095C648.06 341.971 648.414 339.167 649.54 337.01C655.12 327.229 663.786 323.867 674.313 323.428C676.975 322.766 678.576 323.054 680.198 322.94ZM369.175 661.61C377.281 664.872 383.242 670.437 386.857 678.295C388.664 682.224 388.436 686.446 389.225 690.521C389.383 691.337 389.117 692.532 390.929 692.63C391.86 686.631 396.296 683.04 400.341 679.226C404.597 675.222 410.852 675.358 416.453 672.637C412.12 670.588 409.453 667.62 406.986 664.664C403.949 661.072 401.537 657.11 401.395 652.263C401.27 650.845 400.551 649.193 399.152 648.915C397.764 648.437 397.465 650.235 397.019 651.018C391.592 657.983 384.537 661.433 375.653 661.356C373.438 661.236 371.233 660.915 369.175 661.61ZM679.236 460.207C683.357 454.985 687.613 450.981 692.79 448.64C698.179 446.108 703.988 447.027 709.682 446.327C706.894 445.571 704.543 444.234 702.605 442.718C696.388 438.147 691.423 432.838 690.65 424.73C690.366 422.497 689.065 420.41 688.031 417.128C682.991 428.147 674.831 433.351 664.227 435.198C672.36 441.687 677.407 449.219 679.236 460.207ZM317.626 494.281C323.266 487.126 328.649 480.964 337.631 479.232C338.85 479.096 339.879 478.749 340.157 477.352C340.423 476.157 339.226 475.89 338.654 475.255C333.646 470.749 330.091 465.516 328.838 458.794C328.533 456.963 327.826 455.11 327.14 452.854C320.33 462.971 311.376 467.931 299.492 467.289C298.687 467.245 297.478 467.18 297.38 468.989C309.928 472.289 315.459 482.066 317.626 494.281ZM283.949 523.109C285.103 524.18 285.282 524.593 285.484 524.604C292.86 526.414 298.059 531.132 301.75 537.582C303.22 540.283 304.287 542.962 304.516 546.201C304.81 548.233 306.399 548.722 307.896 547.19C308.321 546.81 308.566 546.017 308.99 545.636C312.844 541.61 316.486 537.774 322.424 536.281C324.471 535.787 326.698 535.705 328.978 534.619C325.571 530.402 321.716 526.967 318.7 522.973C315.494 518.766 316.403 513.17 313.419 508.572C306.79 519.102 297.253 523.627 283.949 523.109ZM623.092 366.632C623.239 367.648 623.631 367.871 624.023 368.094C630.272 372.061 634.622 377.539 636.446 384.897C637.11 387.554 638.318 387.62 640.431 385.919C646.968 380.829 653.652 376.754 662.493 377.636C663.5 377.69 664.708 377.755 665.96 377.017C662.569 376.228 660.081 373.674 657.338 372.114C654.594 370.554 652.901 368.244 651.431 365.544C648.469 360.544 647.342 355.24 646.841 349.567C646.683 348.752 646.536 347.736 645.73 347.692C644.723 347.638 644.478 348.431 644.234 349.224C641.425 356.332 636.118 361.086 629.118 363.53C626.858 364.214 624.981 365.323 623.092 366.632ZM430.982 676.649C436.279 679.557 439.475 683.964 442.034 688.942C444.592 693.92 445.317 699.202 446.422 704.908C450.88 693.453 459.845 688.292 470.874 686.066C470.705 685.452 470.917 685.262 470.726 685.05C463.726 680.033 458.603 673.909 456.632 665.535C456.485 664.519 455.734 663.47 454.122 663.383C448.832 671.565 440.389 674.536 430.982 676.649ZM501.746 716.571C506.231 708.345 511.445 701.569 521.064 699.267C524.956 698.267 525.234 696.871 522.365 693.893C517.748 689.61 513.97 684.768 513.311 678.28C513.142 677.666 513.186 676.862 512.38 676.818C511.384 676.562 510.557 676.921 509.909 677.692C505.397 682.691 500.334 686.652 493.388 688.091C491.543 688.596 489.327 688.476 487.428 689.986C492.109 693.063 495.55 696.677 498.13 701.252C500.286 706.208 501.021 711.289 501.746 716.571ZM330.775 437.928C332.218 437.401 332.452 436.809 332.686 436.216C336.48 429.566 342.326 426.051 349.315 423.808C350.344 423.46 351.732 423.938 352.021 422.341C352.097 420.934 351.536 420.097 350.371 419.227C347.279 416.64 345.036 413.292 343.642 409.184C342.766 406.717 342.493 404.283 342.02 401.837C341.883 400.62 341.355 399.18 339.946 399.104C338.536 399.027 338.672 400.245 338.225 401.027C333.669 406.83 328.575 411.394 320.845 412.387C319.212 412.702 317.377 413.006 316.272 414.761C324.661 420.256 329.283 428.168 330.775 437.928ZM491.219 336.107C486.973 332.45 484.349 328.678 482.362 324.336C480.375 319.994 480.837 315.18 480.314 309.909C476.989 315.375 473.739 319.434 469.706 323.047C465.46 326.85 459.597 326.936 454.219 329.266C460.975 335.076 467.551 340.473 469.223 350.646C475.308 342.707 482.406 338.454 491.219 336.107ZM371.132 603.038C362.128 597.712 358.524 589.653 356.384 580.665C348.295 588.293 344.294 591.302 332.874 593.306C336.091 597.311 340.838 599.181 343.653 603.165C346.456 607.349 347.191 612.43 349.56 617.196C354.371 610.399 359.602 607.052 371.132 603.038ZM627.802 604.421C629.729 606.139 630.862 607.611 632.206 608.894C636.039 612.731 639.033 617.127 639.523 623.002C639.616 625.023 640.525 626.887 642.24 628.795C647.607 619.204 655.902 615.217 666.686 613.784C660.034 609.795 654.813 605.479 651.715 599.262C650.986 597.812 651.285 596.013 650.343 594.752C649.402 593.491 648.65 592.442 647.132 594.377C642.195 599.756 635.777 602.635 627.802 604.421ZM560.043 647.134C561.175 648.606 561.725 649.644 562.487 650.492C566.053 655.524 570.871 659.818 570.915 666.474C570.849 667.681 571.367 669.322 573.56 669.844C578.862 661.46 586.956 657.462 597.337 656.007C588.747 650.501 583.455 643.762 581.539 634.383C577.369 636.779 575.54 640.713 572.209 642.549C568.644 644.977 564.931 646.39 560.043 647.134ZM419.845 378.422C417.401 375.064 415.147 371.917 412.882 368.972C410.629 365.825 411.695 361.044 408.636 357.853C405.778 362.135 402.18 365.167 398.201 367.774C394.222 370.382 389.344 370.925 383.841 371.837C392.878 376.56 397.331 383.859 400.647 393.515C404.593 384.05 412.399 381.649 419.845 378.422ZM675.1 476.921C670.076 483.908 664.959 488.874 657.768 491.106C655.923 491.611 656.473 492.649 657.023 493.687C657.393 494.312 658.177 494.758 658.749 495.394C662.401 498.818 665.216 502.801 666.577 507.513C666.904 508.942 667.846 510.203 668.766 511.865C671.993 508.209 675.728 506.394 679.473 504.379C683.218 502.364 687.66 502.402 691.944 501.626C682.336 496.267 677.322 488.131 675.1 476.921ZM589.732 341.033C584.474 348.613 578.013 352.296 569.962 355.49C577.98 360.36 579.57 368.31 583.016 375.554C587.159 369.931 592.21 366.171 598.742 364.911C600.789 364.417 602.063 363.276 603.974 361.565C596.347 356.918 592.476 350.054 589.732 341.033ZM535.856 325.012C531.077 331.206 527.359 336.449 521.154 339.138C519.913 339.676 518.29 339.79 517.038 340.529C515.786 341.268 514.725 342.218 516.462 343.724C519.151 346.289 520.8 349.403 523.065 352.348C524.949 354.87 524.965 358.299 527.856 360.875C529.663 357.343 532.602 355.284 535.732 353.437C538.862 351.59 542.934 351.004 546.298 348.564C539.765 342.363 535.916 335.097 535.856 325.012ZM423.336 616.348C422.395 615.087 421.834 614.25 420.859 613.592C416.793 610.348 415.04 605.413 412.438 601.24C410.576 598.316 410.788 598.126 408.05 600.196C404.887 602.646 401.556 604.482 397.833 606.096C395.563 606.981 393.113 607.454 390.821 608.741C397.991 614.372 402.052 621.447 403.397 630.19C406.963 627.762 408.781 624.029 412.324 622.003C416.069 619.987 419.041 617.325 423.336 616.348ZM360.896 560.744C365.272 554.529 370.111 550.959 375.903 548.449C379.626 546.836 379.86 546.244 377.193 543.277C373.954 539.673 371.33 535.902 370.181 531C369.369 527.327 368.183 526.859 365.2 529.723C361.368 533.347 357.165 536.345 351.673 537.057C350.252 537.181 349 537.92 348.118 539.284C354.292 544.659 359.616 550.795 360.896 560.744ZM655.013 568.186C662.187 562.525 668.534 557.222 677.821 557.322C676.052 556.419 675.523 554.979 674.157 554.099C670.238 551.87 667.793 548.512 665.773 544.773C664.864 542.909 664.581 540.676 663.247 539.192C662.474 538.545 662.126 537.518 661.053 538.67C656.149 543.446 650.123 546.548 642.889 549.584C650.134 553.807 651.958 561.165 655.013 568.186ZM536.025 643.011C535.868 642.196 536.08 642.006 535.878 641.995C531.877 637.544 527.451 633.474 525.551 627.523C525.214 626.295 523.624 625.806 521.937 627.126C517.936 630.136 514.115 633.559 508.813 634.482C506.564 634.965 506.265 636.764 508.002 638.269C511.644 641.894 514.447 646.078 515.172 651.36C515.297 652.779 516.239 654.039 517.616 654.719C522.754 649.351 527.904 643.782 536.025 643.011ZM374.599 501.598C378.954 495.784 384.98 492.682 391.196 489.792C387.832 484.771 384.021 480.532 382.502 475.005C382.007 472.962 380.406 472.674 378.697 474.396C374.876 477.819 370.505 480.204 365.404 481.138C364.185 481.274 363.156 481.621 362.677 483.007C361.986 484.583 363.586 484.871 364.158 485.507C368.774 489.789 372.754 494.642 374.599 501.598ZM632.201 411.083C627.242 416.864 621.777 420.803 614.216 422.41C618.958 428.111 624.146 433.029 625.725 441.18C631.522 434.84 638.31 432.586 646.285 430.799C638.255 426.13 635.212 418.908 632.201 411.083ZM478.785 629.429C474.213 624.343 470.211 619.892 468.11 613.93C467.582 612.49 466.117 613.419 465.279 613.979C461.67 617.211 457.511 619.406 452.803 620.563C450.756 621.057 450.244 623.046 451.567 624.731C455.389 628.769 457.969 633.344 458.884 638.838C459.369 641.082 461.372 641.392 462.678 639.648C466.788 634.628 471.807 631.472 478.785 629.429ZM395.4 415.815C389.837 421.564 384.149 425.894 375.951 428.072C381.966 432.631 384.65 439.028 387.748 445.244C393.066 440.289 398.161 435.726 405.33 433.895C401.204 428.026 397.246 422.771 395.4 415.815ZM606.213 600.229C601.471 594.528 596.898 589.441 594.225 582.844C589.587 586.424 585.554 590.037 580.007 591.754C578.161 592.259 577.862 594.057 579.174 595.943C582.359 600.552 585.745 605.171 586.415 611.458C589.588 608.807 592.158 606.123 595.097 604.064C598.238 602.015 601.558 600.38 606.213 600.229ZM572.05 425.17C573.46 425.246 573.917 424.263 574.353 423.681C577.336 420.818 580.858 419.194 584.75 418.195C587.624 417.342 587.847 416.951 585.964 414.429C582.948 410.435 579.708 406.831 578.57 401.729C578.097 399.284 576.698 399.006 574.978 400.93C571.772 404.184 568.016 406.401 564.069 408.405C561.364 409.872 561.141 410.263 563.226 412.796C566.073 416.176 569.132 419.366 570.504 423.876C570.461 424.681 571.245 425.126 572.05 425.17ZM475.022 389.07C468.56 385.292 468.326 378.424 464.57 373.179C459.453 378.145 454.537 383.122 446.944 385.333C451.827 388.42 453.613 392.751 455.812 396.903C457.091 399.392 457.483 399.615 459.584 398.115C464.211 394.736 469.018 391.77 475.022 389.07ZM530.28 401.939C524.222 398.184 524.624 390.745 519.795 386.652C515.686 391.673 510.487 394.416 504.886 397.138C508.506 401.165 512.339 405.002 514.092 409.936C514.609 411.577 516.264 410.86 517.325 409.909C520.107 407.035 523.629 405.411 527.341 403.999C527.967 403.629 528.615 402.858 530.28 401.939ZM618.878 470.653C615.09 473.473 612.096 476.537 607.97 478.129C605.7 479.014 605.635 480.22 606.936 482.307C608.618 484.818 610.502 487.339 611.569 490.019C612.467 492.084 613.589 493.757 615.336 495.062C619.103 492.644 622.086 489.781 626.381 488.803C629.445 488.163 629.543 486.353 627.235 484.212C623.392 480.576 620.599 476.19 618.878 470.653ZM607.298 527.898C605.452 528.403 604.592 529.365 603.531 530.315C601.196 532.407 598.479 534.075 595.763 535.743C593.259 537.221 593.047 537.411 594.729 539.921C596.591 542.845 598.453 545.769 599.699 548.861C600.048 549.888 600.576 551.328 602.166 551.817C605.872 546.775 612.573 546.129 617.233 542.147C613.03 537.685 609.209 533.647 607.298 527.898ZM430.699 558.673C431.167 557.488 429.778 557.01 429.005 556.363C426.518 553.809 424.857 550.896 423.621 547.603C422.913 545.75 421.324 545.261 420.23 546.815C417.84 549.912 414.182 550.319 411.275 551.775C408.369 553.23 408.167 553.22 410.252 555.752C412.909 558.92 414.94 562.458 416.769 565.985C418.059 568.273 418.451 568.496 420.563 566.795C423.312 564.524 425.881 561.84 429.572 560.83C430.59 560.683 430.633 559.879 430.699 558.673ZM456.669 444.537C455.738 443.075 454.394 441.792 454.078 440.162C453.571 438.32 452.238 436.836 451.731 434.994C451.236 432.951 449.848 432.472 447.757 433.771C445.041 435.439 442.303 437.509 439.015 438.541C436.332 439.605 436.054 441.002 437.949 443.322C439.653 445.431 441.569 447.349 442.647 449.827C443.512 452.496 444.955 451.969 446.632 450.85C449.963 449.013 453.115 446.764 456.669 444.537ZM524.629 581.095C527.008 585.66 529.632 589.432 530.601 593.92C531.004 593.942 531.205 593.953 531.407 593.964C535.745 592.182 538.793 588.113 543.524 586.554C544.955 586.228 544.639 584.598 543.496 583.326C541.792 581.217 539.675 579.288 538.82 576.419C537.943 573.952 536.523 574.076 534.008 575.755C531.27 577.825 528.711 580.308 524.629 581.095ZM435.605 490.38C431.626 492.988 427.478 494.981 423.341 496.774C424.544 500.67 427.647 503.056 429.286 506.371C430.745 509.273 430.946 509.284 433.684 507.214C435.573 505.905 437.261 504.584 439.139 503.476C441.643 501.998 441.866 501.607 440.385 499.107C438.915 496.407 437.042 493.684 435.605 490.38ZM562.706 459.75C559.968 461.82 558.035 463.934 555.341 465.199C552.646 466.465 552.837 466.677 554.699 469.601C556.011 471.487 557.312 473.573 558.199 475.839C558.918 477.491 560.115 477.758 561.166 477.008C563.67 475.53 566.163 474.254 568.847 473.189C569.674 472.831 571.552 471.722 570.218 470.239C567.36 467.059 565.553 463.131 562.706 459.75ZM478.39 562.059C475.652 564.129 472.745 565.585 469.838 567.041C468.385 567.769 468.129 568.763 468.891 569.611C471.167 572.356 472.201 575.638 473.851 578.752C474.771 580.415 475.598 580.056 476.861 579.116C478.984 577.215 481.107 575.313 483.6 574.036C485.478 572.928 485.353 571.51 484.4 570.45C482.114 567.907 481.302 564.233 478.39 562.059ZM506.576 448.043C504.573 447.733 503.691 449.097 502.439 449.836C495.934 454.323 496.136 454.334 500.632 460.828C501.944 462.714 503.354 462.79 504.427 461.639C506.56 459.536 511.149 460.591 511.187 456.157C511.198 455.956 511.209 455.755 511.209 455.755C509.93 453.266 508.841 450.989 507.551 448.701C507.17 448.277 506.576 448.043 506.576 448.043ZM546.362 534.079C549.258 532.824 552.165 531.368 554.903 529.298C555.954 528.548 556.188 527.956 555.436 526.907C553.743 524.597 552.464 522.109 550.346 520.179C549.764 519.744 549.394 519.119 548.768 519.489C546.677 520.787 544.576 522.287 542.677 523.797C541.827 524.558 541.751 525.965 542.312 526.802C543.804 529.101 544.256 531.948 546.362 534.079ZM488.594 519.057C490.853 518.372 492.731 517.264 494.811 516.167C496.275 515.238 496.553 513.841 495.992 513.004C495.072 511.341 494.576 509.298 493.019 508.206C492.437 507.771 491.887 506.733 491.049 507.293C488.768 508.379 486.095 509.243 484.958 511.601C484.266 513.177 485.802 514.671 486.934 516.144C487.495 516.981 487.429 518.187 488.594 519.057Z" fill="white" fill-opacity="0.85"/>
<path d="M395.275 313.576C380.136 313.362 369.352 299.873 370.358 285.006C371.386 269.737 383.476 259.099 398.582 259.916C414.493 260.777 425.109 273.652 424.092 288.72C423.053 304.19 410.125 315.387 395.275 313.576Z" fill="white" fill-opacity="0.85"/>
<path d="M604.54 272.671C605.042 285.805 590.024 298.301 575.723 297.527C561.837 296.574 549.495 281.994 550.839 268.355C552.194 254.515 564.741 242.893 579.634 243.9C594.327 244.897 606.521 258.462 604.54 272.671Z" fill="white" fill-opacity="0.85"/>
<path d="M720.302 541.27C720.481 526.762 734.171 516.412 748.46 517.387C763.354 518.394 774.394 530.888 773.366 546.157C772.414 560.019 758.637 571.977 744.157 570.791C730.885 569.669 718.065 556.474 720.302 541.27Z" fill="white" fill-opacity="0.85"/>
<path d="M707.376 597.233C707.332 583.115 721.893 571.603 736.373 572.789C749.443 573.9 761.85 587.274 760.43 602.321C759.086 615.96 745.33 627.516 731.667 626.172C717.579 625.208 705.129 612.637 707.376 597.233Z" fill="white" fill-opacity="0.85"/>
<path d="M733.173 486.313C733.074 473.201 747.499 460.471 761.587 461.435C775.474 462.388 787.837 476.567 786.896 490.228C786.02 502.682 772.994 515.689 758.1 514.682C744.012 513.718 731.426 499.93 733.173 486.313Z" fill="white" fill-opacity="0.85"/>
<path d="M548.297 259.345C548.776 272.881 535.19 285.051 519.904 283.821C505.615 282.846 494.204 269.727 495.189 255.262C496.108 242.003 508.9 229.588 523.794 230.596C536.662 231.695 550.713 244.554 548.297 259.345Z" fill="white" fill-opacity="0.85"/>
<path d="M354.329 331.122C354.766 345.462 340.999 357.219 326.699 356.446C313.193 355.917 300.83 341.738 301.336 328.658C301.896 314.574 315.684 302.414 329.178 303.144C344.284 303.962 356.109 316.901 354.329 331.122Z" fill="white" fill-opacity="0.85"/>
<path d="M290.85 608.374C290.938 621.687 278.358 633.912 262.659 632.861C249.578 631.951 237.171 618.577 238.134 604.514C239.032 591.657 252.662 578.683 266.94 579.859C280.604 581.203 292.831 594.165 290.85 608.374Z" fill="white" fill-opacity="0.85"/>
<path d="M439.887 243.196C439.63 229.269 453.81 217.333 467.305 218.063C481.807 218.847 493.048 231.352 492.276 245.627C491.259 260.695 479.795 270.964 465.081 270.369C450.356 269.976 438.532 257.036 439.887 243.196Z" fill="white" fill-opacity="0.85"/>
<path d="M756.503 364.977C756.857 377.094 743.799 390.705 728.704 389.686C713.81 388.679 703.227 375.201 703.923 362.334C704.685 348.26 716.818 336.818 731.532 337.412C746.447 338.018 757.814 351.941 756.503 364.977Z" fill="white" fill-opacity="0.85"/>
<path d="M799.239 433.831C798.042 448.486 786.154 459.135 771.832 458.763C757.308 458.381 745.93 444.658 746.659 431.188C747.186 417.706 760.985 405.346 774.67 406.288C787.964 407.007 800.011 419.556 799.239 433.831Z" fill="white" fill-opacity="0.85"/>
<path d="M517.022 755.306C530.136 755.612 542.788 768.194 542.005 782.67C540.977 797.939 528.092 808.332 514.608 807.401C499.715 806.394 489.584 795.764 490.007 780.462C490.23 765.149 503.315 754.766 517.022 755.306Z" fill="white" fill-opacity="0.85"/>
<path d="M680.187 323.141C679.817 322.516 679.659 321.701 679.267 321.478C676.066 320.902 673.97 318.57 671.64 316.831C666.768 313.543 664.199 308.766 662.679 303.24C660.453 295.86 662.211 289.503 665.591 283.031C668.525 277.342 673.532 274.387 679.09 272.47C682.59 271.247 686.325 269.433 690.309 270.455C695.279 271.934 700.228 273.815 704.283 277.26C708.138 280.695 710.74 284.869 712.292 289.792C715.956 300.476 710.213 313.272 700.219 318.781C695.424 321.546 690.301 322.882 684.662 322.577C683.23 322.902 681.619 322.815 680.187 323.141Z" fill="white" fill-opacity="0.85"/>
<path d="M233.62 370.566C235.633 355.754 245.845 346.224 260.951 347.041C276.057 347.858 286.09 360.298 285.127 374.361C284.154 388.625 271.449 399.431 257.562 398.478C243.295 397.101 233.207 385.667 233.62 370.566Z" fill="white" fill-opacity="0.85"/>
<path d="M408.816 257.445C403.252 255.733 397.487 254.009 393.051 250.14C389.387 246.917 386.986 242.754 386.028 238.065C385.69 236.837 385.353 235.608 384.814 234.369C383.894 232.706 383.79 230.886 384.291 229.098C386.506 221.757 388.922 214.427 396.021 210.174C400.201 207.577 404.752 205.605 409.82 205.274C415.694 204.987 421.023 207.292 425.672 210.971C432.46 216.178 436.119 223.232 436.277 231.507C436.561 241.202 428.646 253.074 417.808 255.512C414.754 255.952 412.207 258.234 408.816 257.445Z" fill="white" fill-opacity="0.85"/>
<path d="M220.751 563.648C206.918 561.69 196.172 551.228 196.161 536.508C196.128 529.65 199.676 523.793 204.782 519.028C210.1 514.073 216.899 511.618 223.546 511.978C229.991 512.326 236.486 515.5 241.048 520.788C245.811 526.087 248.081 532.662 247.733 539.096C247.385 545.53 244.408 552.023 238.91 556.565C234.441 560.759 226.189 563.943 220.751 563.648Z" fill="white" fill-opacity="0.85"/>
<path d="M666.345 754.512C665.469 759.506 663.542 765.249 659.063 769.644C653.521 774.991 646.488 778.038 639.238 777.646C632.188 777.265 625.715 773.688 620.963 768.188C616.39 763.102 614.512 756.749 615.05 750.527C616.291 735.068 628.114 725.625 642.033 725.975C654.934 726.471 666.834 738.004 666.345 754.512Z" fill="white" fill-opacity="0.85"/>
<path d="M340.082 299.5C325.623 297.911 315.057 287.862 315.671 272.772C316.242 258.487 328.141 247.637 342.442 248.41C356.149 248.95 367.488 259.646 366.852 275.138C366.047 290.016 355.868 298.942 340.082 299.5Z" fill="white" fill-opacity="0.85"/>
<path d="M351.753 718.539C366.212 720.128 376.724 731.182 375.739 745.647C374.722 760.715 363.471 770.793 348.789 769.596C333.493 768.567 324.157 758.181 324.793 742.689C325.385 728.001 336.794 718.738 351.753 718.539Z" fill="white" fill-opacity="0.85"/>
<path d="M732.972 710.327C731.297 726.368 719.093 735.386 706.001 734.678C691.902 733.916 681.074 721.231 682.037 707.168C682.406 700.333 685.743 694.665 691.05 689.911C696.347 685.359 702.721 683.284 709.166 683.632C716.014 684.003 722.307 687.166 727.071 692.465C731.644 697.552 732.504 704.051 732.972 710.327Z" fill="white" fill-opacity="0.85"/>
<path d="M546.485 793.196C546.555 780.698 559.336 768.484 572.82 769.415C587.512 770.412 597.589 782.047 596.436 795.898C595.184 811.558 585.631 820.116 570.112 819.478C555.79 819.106 545.724 807.27 546.485 793.196Z" fill="white" fill-opacity="0.85"/>
<path d="M250.436 687.046C237.077 687.533 225.912 673.621 226.787 661.167C227.728 647.506 238.61 636.802 253.302 637.799C267.793 638.784 276.683 649.952 276.357 663.445C275.819 677.127 263.272 688.749 250.436 687.046Z" fill="white" fill-opacity="0.85"/>
<path d="M297.057 318.143C296.763 331.032 284.853 342.083 270.765 341.119C256.677 340.156 247.014 328.341 247.955 314.68C248.842 302.025 260.36 290.751 274.649 291.726C287.317 292.814 298.738 305.732 297.057 318.143Z" fill="white" fill-opacity="0.85"/>
<path d="M777.689 555.868C777.802 542.566 790.317 531.548 803.599 532.468C817.687 533.432 827.638 543.649 827.046 558.337C826.241 573.215 814.227 582.445 801.125 581.938C788.022 581.431 776.377 568.904 777.689 555.868Z" fill="white" fill-opacity="0.85"/>
<path d="M587.582 238.886C574.425 239.384 563.608 226.499 564.336 213.028C564.989 200.965 578.151 189.175 590.437 189.84C602.914 190.716 614.58 202.841 613.65 216.301C612.328 229.538 601.425 240.643 587.582 238.886Z" fill="white" fill-opacity="0.85"/>
<path d="M817.297 477.152C830.836 477.078 840.858 489.719 840.14 502.989C839.477 515.253 827.746 526.717 814.05 525.976C801.563 525.3 790.163 511.98 791.028 499.727C791.893 487.473 804.08 475.026 817.297 477.152Z" fill="white" fill-opacity="0.85"/>
<path d="M536.376 177.236C548.526 176.684 560.933 190.058 560.025 203.116C559.16 215.369 547.419 227.034 533.935 226.103C520.249 225.161 510.129 214.33 510.667 200.648C511.217 186.764 523.116 175.914 536.376 177.236Z" fill="white" fill-opacity="0.85"/>
<path d="M788.052 636.884C774.312 636.948 764.459 624.921 764.997 611.238C765.514 597.958 778.409 587.364 790.907 587.838C803.798 588.535 814.996 601.845 814.153 613.696C813.424 627.167 801.683 638.832 788.052 636.884Z" fill="white" fill-opacity="0.85"/>
<path d="M767.382 309.509C767.257 323.012 755.402 333.058 741.504 332.306C728.614 331.609 717.775 319.125 718.471 306.258C719.102 294.597 731.48 282.361 744.762 283.281C757.239 284.158 769.341 295.701 767.382 309.509Z" fill="white" fill-opacity="0.85"/>
<path d="M233.376 595.384C232.892 608.062 221.184 619.123 207.107 617.959C193.835 616.837 183.737 605.604 184.699 591.541C185.586 578.886 197.485 568.036 210.969 568.967C223.054 569.621 235.292 582.381 233.376 595.384Z" fill="white" fill-opacity="0.85"/>
<path d="M810.15 377.759C810.842 391.105 796.94 401.645 784.833 401.393C772.335 400.919 760.543 387.376 761.174 375.715C761.87 362.847 774.205 351.416 787.297 352.124C800.77 353.256 811.674 364.533 810.15 377.759Z" fill="white" fill-opacity="0.85"/>
<path d="M293.215 755.096C279.856 755.583 269.284 741.904 269.959 729.439C270.59 717.778 283.572 705.575 295.657 706.229C307.943 706.894 319.81 719.029 318.891 732.288C317.972 745.546 306.666 756.63 293.215 755.096Z" fill="white" fill-opacity="0.85"/>
<path d="M645.843 203.726C658.417 202.793 669.762 217.118 669.322 228.991C668.637 241.658 656.09 253.279 643.412 252.392C630.522 251.694 619.672 239.412 620.357 226.746C620.863 213.666 633.823 201.866 645.843 203.726Z" fill="white" fill-opacity="0.85"/>
<path d="M777.846 642.583C791.182 642.498 801.744 656.378 800.911 668.028C800.281 679.689 787.097 691.881 775.023 691.026C763.553 690.204 751.261 678.449 752.393 665C753.29 652.143 764.786 641.272 777.846 642.583Z" fill="white" fill-opacity="0.85"/>
<path d="M503.378 189.768C503.634 203.695 489.362 213.61 478.083 213C467.196 212.613 454.076 201.216 454.826 187.343C455.757 173.883 468.429 163.68 480.704 164.546C492.979 165.412 504.7 176.531 503.378 189.768Z" fill="white" fill-opacity="0.85"/>
<path d="M378.558 219.311C378.401 233.418 364.956 242.974 353.073 242.331C341.391 241.699 329.447 230.971 330.208 216.897C330.959 203.024 342.983 193.593 355.471 194.268C368.775 194.786 379.456 206.455 378.558 219.311Z" fill="white" fill-opacity="0.85"/>
<path d="M827.623 469.242C814.118 468.713 804.074 456.474 804.748 444.009C805.455 430.941 818.541 420.558 830.223 421.19C841.502 421.8 853.615 433.143 852.897 446.412C852.179 459.682 840.302 470.13 827.623 469.242Z" fill="white" fill-opacity="0.85"/>
<path d="M672.726 763.528C673.487 749.454 686.518 740.077 697.988 740.899C711.673 741.841 721.696 754.482 720.439 766.512C719.138 779.347 709.912 789.333 695.198 788.739C681.491 788.199 672.188 777.21 672.726 763.528Z" fill="white" fill-opacity="0.85"/>
<path d="M470.587 825.789C469.042 839.417 458.852 848.545 445.357 847.815C431.449 847.264 422.031 834.656 422.683 822.592C423.347 810.328 435.67 799.098 448.338 800.187C460.009 801.02 471.561 811.525 470.587 825.789Z" fill="white" fill-opacity="0.85"/>
<path d="M628.808 783.736C641.889 784.645 652.39 795.9 651.27 809.148C650.339 822.608 639.523 832.105 626.23 831.386C612.926 830.868 603.252 819.254 603.736 806.577C604.029 793.687 615.907 783.24 628.808 783.736Z" fill="white" fill-opacity="0.85"/>
<path d="M309.187 261.936C307.365 276.961 298.28 284.333 284.339 284.386C278.073 284.45 272.363 281.721 267.991 276.645C263.609 271.771 261.306 265.798 261.431 259.756C261.566 253.512 264.702 247.834 269.383 243.45C274.075 238.864 280.281 236.175 286.704 236.926C300.144 238.661 308.985 247.004 309.187 261.936Z" fill="white" fill-opacity="0.85"/>
<path d="M216.361 417.019C214.859 422.382 213.525 428.359 208.251 432.51C203.379 436.682 197.386 439.181 191.343 438.854C185.099 438.516 179.4 435.587 175.007 430.913C170.423 426.027 167.728 419.832 168.468 413.621C170.204 400.205 178.592 390.778 193.496 391.585C208.793 392.614 215.522 402.656 216.361 417.019Z" fill="white" fill-opacity="0.85"/>
<path d="M389.505 834.711C374.666 832.698 367.289 823.427 367.436 809.522C367.571 803.278 370.315 797.377 375.388 793.216C380.249 789.244 386.253 786.544 392.497 786.882C398.931 787.432 404.631 790.361 409.002 795.437C413.183 800.301 415.889 806.295 414.947 812.495C412.809 825.89 404.867 834.534 389.505 834.711Z" fill="white" fill-opacity="0.85"/>
<path d="M181.719 444.988C186.7 446.265 192.275 447.777 196.657 452.651C201.23 457.738 203.331 463.7 203.397 469.954C203.561 481.86 189.985 493.829 177.933 492.572C164.281 491.027 155.293 481.668 156.065 467.394C156.603 453.711 167.174 445.007 181.719 444.988Z" fill="white" fill-opacity="0.85"/>
<path d="M699.901 264.925C685.252 263.124 676.084 253.353 677.227 239.703C678.434 224.847 688.336 217.316 702.065 217.454C707.514 217.547 713.055 219.662 717.068 223.912C721.842 229.009 725.119 235.639 724.347 242.453C723.797 248.876 720.651 254.755 715.556 259.319C710.695 263.291 705.192 264.203 699.901 264.925Z" fill="white" fill-opacity="0.85"/>
<path d="M501.41 860.929C487.567 859.172 478.389 849.601 479.129 835.93C479.857 822.459 490.673 812.962 504.157 813.893C517.249 814.601 526.944 825.813 526.058 838.469C525.531 851.95 514.758 860.643 501.41 860.929Z" fill="white" fill-opacity="0.85"/>
<path d="M229.107 360.643C227.36 374.26 218.389 383.252 204.47 382.903C191.558 382.607 181.65 371.586 182.156 358.507C182.607 346.432 192.514 335.071 206.803 336.046C221.283 337.233 228.425 347.096 229.107 360.643Z" fill="white" fill-opacity="0.85"/>
<path d="M197.374 626.103C210.667 626.822 219.748 638.202 219.296 650.276C218.802 663.154 207.942 673.456 194.861 672.546C180.975 671.593 171.998 662.034 172.759 647.96C173.466 634.892 182.448 625.699 197.374 626.103Z" fill="white" fill-opacity="0.85"/>
<path d="M425.391 152.681C439.267 153.835 447.172 164.547 446.263 177.604C445.045 192.661 432.971 199.267 422.084 198.88C415.628 198.733 409.95 195.401 405.579 190.325C401.387 185.662 401.109 179.598 400.003 173.892C403.351 160.563 409.67 152.032 425.391 152.681Z" fill="white" fill-opacity="0.85"/>
<path d="M761.602 744.945C747.917 744.003 739.419 733.058 740.507 720.414C741.013 714.795 742.716 709.443 747.174 705.449C752.269 700.886 758.676 698.208 765.089 699.159C779.313 701.34 787.348 709.639 786.587 723.713C785.891 736.58 776.082 746.132 761.602 744.945Z" fill="white" fill-opacity="0.85"/>
<path d="M338.986 775.317C352.671 776.258 361.37 787.214 360.081 799.848C359.575 805.467 357.871 810.819 353.413 814.812C348.318 819.376 341.911 822.054 335.499 821.102C321.476 818.932 313.229 810.824 314.001 796.549C314.485 783.872 324.506 774.13 338.986 775.317Z" fill="white" fill-opacity="0.85"/>
<path d="M143.531 523.579C143.634 510.478 154.439 501.182 167.531 501.89C181.428 502.642 190.095 514.201 189.454 526.063C188.768 538.729 178.154 548.237 165.454 547.752C153.571 547.109 142.177 537.419 143.531 523.579Z" fill="white" fill-opacity="0.85"/>
<path d="M800.919 298.216C811.659 297.587 823.081 310.505 822.036 322.346C821.236 333.393 810.143 344.286 797.655 343.611C785.973 342.979 775.505 331.121 776.359 319.068C777.137 308.423 789.324 295.976 800.919 298.216Z" fill="white" fill-opacity="0.85"/>
<path d="M580.903 851.518C581.469 863.445 569.189 873.871 557.507 873.239C546.228 872.629 535.335 861.151 535.977 849.289C536.618 837.427 547.276 827.115 559.764 827.79C572.867 828.297 582.53 840.112 580.903 851.518Z" fill="white" fill-opacity="0.85"/>
<path d="M237.238 740.574C224.326 740.279 215.202 729.703 216.11 716.646C217.04 703.186 227.589 694.884 240.268 695.772C252.744 696.648 261.934 706.018 261.205 719.488C260.307 732.345 250.297 741.886 237.238 740.574Z" fill="white" fill-opacity="0.85"/>
<path d="M219.865 281.301C230.001 280.64 242.26 292.998 241.406 305.05C240.617 315.896 228.909 326.958 217.428 326.337C205.948 325.716 195.512 313.255 195.876 302.789C196.327 290.715 209.669 279.338 219.865 281.301Z" fill="white" fill-opacity="0.85"/>
<path d="M734.097 252.66C733.824 242.764 744.972 230.866 757.851 231.764C769.321 232.586 779.621 243.83 778.99 255.492C778.337 267.555 765.284 277.334 755.023 276.577C743.956 275.777 732.459 264.266 734.097 252.66Z" fill="white" fill-opacity="0.85"/>
<path d="M819.878 388.368C819.927 376.272 832.142 367.052 843.219 367.651C855.506 368.316 865.337 380.745 864.358 391.379C863.58 402.024 852.9 412.738 840.424 411.862C829.961 411.094 818.175 401.181 819.878 388.368Z" fill="white" fill-opacity="0.85"/>
<path d="M624.169 160.007C624.078 172.907 612.097 181.534 601.008 181.136C588.118 180.439 579.059 168.657 579.635 158.001C580.212 147.345 590.5 136.408 602.987 137.083C614.479 137.503 625.034 147.753 624.169 160.007Z" fill="white" fill-opacity="0.85"/>
<path d="M867.484 624.848C867.828 637.167 854.584 646.734 844.513 646.19C832.216 645.726 822.777 633.52 822.939 623.043C823.08 612.969 833.836 600.847 846.324 601.523C857.804 602.144 868.708 613.421 867.484 624.848Z" fill="white" fill-opacity="0.85"/>
<path d="M860.316 548.24C871.024 548.214 882.129 559.502 880.829 572.337C879.85 582.971 868.789 593.261 856.525 592.194C844.864 591.16 835.212 579.144 836.202 568.309C836.98 557.664 847.682 546.548 860.316 548.24Z" fill="white" fill-opacity="0.85"/>
<path d="M151.799 602.263C140.487 602.256 130.176 591.213 131.041 578.96C131.716 566.494 143.506 557.655 154.573 558.455C166.859 559.12 176.31 571.125 175.532 581.77C174.988 591.822 164.444 603.754 151.799 602.263Z" fill="white" fill-opacity="0.85"/>
<path d="M681.766 842.859C671.282 842.493 660.345 831.82 661.232 819.164C662.075 807.313 673.495 797.849 684.965 798.671C697.441 799.547 706.468 811.932 705.488 822.567C704.487 833.603 694.031 843.926 681.766 842.859Z" fill="white" fill-opacity="0.85"/>
<path d="M547.74 124.013C560.418 124.9 569.139 135.454 568.285 147.506C567.387 160.363 556.615 169.056 544.552 168C532.892 166.966 523.67 158.2 524.399 144.729C524.85 132.655 534.457 123.092 547.74 124.013Z" fill="white" fill-opacity="0.85"/>
<path d="M259.548 783.723C259.754 772.442 269.607 762.086 282.698 762.794C295.186 763.47 304.087 774.437 303.456 786.098C302.76 798.965 291.585 807.636 280.306 807.026C268.814 806.606 258.64 796.78 259.548 783.723Z" fill="white" fill-opacity="0.85"/>
<path d="M300.316 183.219C312.771 184.498 321.323 194.437 320.458 206.691C319.539 219.95 308.641 227.224 296.725 227.184C291.075 227.08 285.8 223.77 282 219.33C278.211 214.689 275.472 209.298 276.615 203.109C278.656 191.524 286.81 182.69 300.316 183.219Z" fill="white" fill-opacity="0.85"/>
<path d="M893.384 515.749C891.883 528.573 881.524 537.087 869.864 536.053C857.61 534.785 848.769 526.443 849.487 513.173C850.162 500.708 859.927 491.96 872.616 492.647C885.517 493.143 893.602 504.268 893.384 515.749Z" fill="white" fill-opacity="0.85"/>
<path d="M749.134 799.924C736.445 799.238 727.587 787.466 728.365 776.821C729.198 765.171 739.611 755.652 751.102 756.072C762.191 756.471 772.577 766.107 772.083 778.985C771.643 790.858 761.453 799.986 749.134 799.924Z" fill="white" fill-opacity="0.85"/>
<path d="M656.479 193.816C644.024 192.537 635.227 183.39 636.113 170.735C637.011 157.878 646.754 149.533 659.422 150.622C673.499 151.787 678.458 160.927 680.212 173.322C677.131 185.456 670.823 193.785 656.479 193.816Z" fill="white" fill-opacity="0.85"/>
<path d="M345.943 161.288C347.221 148.856 357.177 140.32 368.87 140.751C374.107 141.035 379.044 143.117 382.866 147.155C387.259 151.828 389.774 157.61 389.649 163.653C389.557 169.092 386.645 174.379 382.388 178.383C378.132 182.387 372.743 184.919 366.912 184.402C355.252 183.368 345.638 174.379 345.943 161.288Z" fill="white" fill-opacity="0.85"/>
<path d="M854.167 680.588C853.558 691.847 842.72 701.746 831.229 701.326C819.748 700.705 810.02 690.096 810.64 678.636C811.047 667.366 822.13 656.674 833.366 658.088C846.817 659.623 853.083 667.019 854.167 680.588Z" fill="white" fill-opacity="0.85"/>
<path d="M635.949 864.577C635.361 875.434 624.491 885.937 613.424 885.136C607.997 884.641 602.668 882.336 598.656 878.087C594.453 873.625 592.743 867.886 592.846 862.246C593.042 851.166 604.696 841.109 615.55 842.1C628.822 843.221 635.573 852.862 635.949 864.577Z" fill="white" fill-opacity="0.85"/>
<path d="M493.466 111.599C505.372 111.84 514.24 123.41 513.663 134.066C513.011 146.129 501.825 155.001 491.351 154.435C479.881 153.613 470.3 144.02 470.975 131.555C471.573 120.497 481.382 110.946 493.466 111.599Z" fill="white" fill-opacity="0.85"/>
<path d="M230.912 226.447C242.001 226.845 251.751 237.052 250.929 248.501C250.647 253.728 248.551 258.857 244.496 262.873C240.016 267.268 234.469 268.984 228.639 268.467C217.382 267.455 208.105 259.694 208.611 246.615C209.285 234.149 218.974 226.809 230.912 226.447Z" fill="white" fill-opacity="0.85"/>
<path d="M161.87 703.629C161.842 692.941 172.053 683.411 183.937 684.054C197.219 684.974 204.318 695.642 203.753 706.097C203.165 716.953 194.979 726.391 181.685 725.672C169.992 725.241 160.433 715.247 161.87 703.629Z" fill="white" fill-opacity="0.85"/>
<path d="M434.846 859.143C445.184 858.492 455.282 869.726 454.684 880.783C454.042 892.646 443.281 901.137 433.009 900.582C422.132 899.993 412.752 890.412 413.182 878.74C413.568 867.872 423.823 857.538 434.846 859.143Z" fill="white" fill-opacity="0.85"/>
<path d="M714.604 164.899C725.714 164.895 734.904 174.264 734.452 186.339C733.854 197.397 723.664 206.524 712.989 205.947C700.894 205.494 692.374 194.951 692.972 183.893C693.794 172.444 702.944 163.865 714.604 164.899Z" fill="white" fill-opacity="0.85"/>
<path d="M883.236 479.308C872.898 479.959 863.012 468.535 863.823 457.287C864.655 445.637 875.618 437.156 886.08 437.924C896.14 438.669 905.776 447.256 905.091 459.923C904.481 471.182 894.259 480.913 883.236 479.308Z" fill="white" fill-opacity="0.85"/>
<path d="M378.376 887.343C366.302 886.488 359.318 877.439 359.388 864.941C359.529 854.867 370.96 845.201 382.026 846.002C391.079 846.693 401.804 857.557 401.015 868.403C400.123 877.429 389.356 889.751 378.376 887.343Z" fill="white" fill-opacity="0.85"/>
<path d="M138.759 656.606C128.601 657.67 118.41 644.415 119.134 634.775C119.846 625.337 130.929 614.644 141.19 615.401C150.847 616.125 161.403 626.375 160.815 637.232C160.261 647.486 148.743 658.759 138.759 656.606Z" fill="white" fill-opacity="0.85"/>
<path d="M121.956 478.05C111.014 478.668 101.988 466.283 102.521 456.431C103.267 446.389 113.288 436.648 124.959 437.481C135.623 438.259 144.768 448.433 143.969 459.48C143.469 468.729 133.965 480.111 121.956 478.05Z" fill="white" fill-opacity="0.85"/>
<path d="M156.726 402.904C156.879 415.011 146.754 422.932 135.475 422.322C125.192 421.967 115.388 412.766 116.029 400.904C116.617 390.047 127.422 380.751 137.492 381.296C148.973 381.917 158.097 392.492 156.726 402.904Z" fill="white" fill-opacity="0.85"/>
<path d="M224.04 794.102C214.307 794.785 204.23 783.15 204.818 772.293C205.372 762.039 217.026 751.983 227.266 753.141C237.103 754.278 246.673 764.072 245.873 775.119C245.15 784.759 235.858 795.951 224.04 794.102Z" fill="white" fill-opacity="0.85"/>
<path d="M832.615 268.676C832.251 279.142 822.061 288.27 810.984 287.67C800.309 287.093 791.207 276.115 791.75 266.062C792.251 256.814 802.528 246.078 813.997 246.9C824.258 247.657 833.796 258.053 832.615 268.676Z" fill="white" fill-opacity="0.85"/>
<path d="M856.036 313.7C867.37 313.305 875.824 325.054 875.493 334.916C874.894 345.974 864.726 354.7 854.231 354.535C844.743 354.425 833.817 343.551 834.595 332.906C834.948 322.641 846.434 311.97 856.036 313.7Z" fill="white" fill-opacity="0.85"/>
<path d="M509.91 894.256C510.563 904.576 499.557 913.861 488.076 913.24C477.402 912.662 468.49 901.896 468.821 892.034C469.131 882.573 479.62 871.647 490.889 872.458C501.351 873.226 511.874 884.079 509.91 894.256Z" fill="white" fill-opacity="0.85"/>
<path d="M169.831 347.354C170.24 358.467 158.047 367.284 148.58 366.772C139.114 366.26 128.569 355.809 129.347 345.164C130.157 333.916 140.728 325.213 150.788 325.958C161.261 326.525 171.033 336.329 169.831 347.354Z" fill="white" fill-opacity="0.85"/>
<path d="M799.135 734.474C798.971 722.568 809.689 714.881 820.163 715.447C831.442 716.057 839.646 724.97 839.45 736.05C839.266 746.929 829.468 756.279 818.178 755.87C807.111 755.07 797.573 744.673 799.135 734.474Z" fill="white" fill-opacity="0.85"/>
<path d="M111.739 491.411C120.868 490.695 131.919 502.988 130.972 513.019C130.004 523.452 117.991 532.682 109.341 532.013C99.2918 531.066 89.7214 521.273 90.1182 510.204C90.5859 501.558 100.917 489.817 111.739 491.411Z" fill="white" fill-opacity="0.85"/>
<path d="M435.162 140.103C424.868 139.95 415.564 128.961 416.544 118.327C417.534 107.492 427.076 99.1356 437.762 99.512C446.433 99.7795 457.424 109.448 456.794 121.109C456.239 131.363 444.16 141.8 435.162 140.103Z" fill="white" fill-opacity="0.85"/>
<path d="M322.949 873.859C311.234 873.83 303.574 862.325 304.298 852.685C305.108 841.437 314.025 833.451 325.315 833.86C334.792 834.171 345.021 842.992 344.581 854.865C344.026 865.118 333.166 875.42 322.949 873.859Z" fill="white" fill-opacity="0.85"/>
<path d="M565.168 907.126C563.922 918.956 555.654 926.171 544.353 925.963C533.869 925.597 524.892 916.038 525.501 904.779C526.034 894.927 535.641 885.365 546.506 886.154C558.178 886.987 565.353 896.248 565.168 907.126Z" fill="white" fill-opacity="0.85"/>
<path d="M738.162 853.371C726.132 851.712 719.463 844.293 719.68 832.812C720.066 821.944 729.205 813.566 740.294 813.964C750.768 814.531 759.745 824.09 758.754 834.925C757.922 846.576 749.284 853.166 738.162 853.371Z" fill="white" fill-opacity="0.85"/>
<path d="M898.93 383.369C909.191 384.125 917.967 393.674 917.412 403.928C917.059 414.192 906.646 423.711 896.406 422.552C884.555 421.306 877.516 413.263 878.125 402.004C878.756 390.343 886.589 383.709 898.93 383.369Z" fill="white" fill-opacity="0.85"/>
<path d="M789.308 199.187C788.34 209.62 778.776 218.378 768.291 218.012C763.055 217.729 758.553 215.066 755.123 211.251C751.503 207.224 749.548 202.278 749.82 197.252C750.081 192.427 752.569 187.52 756.401 183.896C760.445 180.082 765.6 178.143 770.837 178.426C775.671 178.688 780.586 181.172 784.207 185.199C787.233 188.992 789.536 194.964 789.308 199.187Z" fill="white" fill-opacity="0.85"/>
<path d="M671.718 856.834C675.703 857.856 680.303 858.71 683.732 862.525C687.543 866.764 690.091 871.943 689.988 877.583C689.716 882.609 686.826 887.494 682.983 891.319C679.151 894.943 674.219 896.491 669.396 896.028C657.926 895.206 650.517 886.538 650.489 875.85C650.608 866.177 659.198 856.761 671.718 856.834Z" fill="white" fill-opacity="0.85"/>
<path d="M182.555 291.381C181.342 302.608 173.443 310.448 162.153 310.039C150.461 309.608 143.03 301.342 143.437 290.072C143.888 277.998 151.754 270.761 163.85 271.213C175.14 271.622 181.977 279.655 182.555 291.381Z" fill="white" fill-opacity="0.85"/>
<path d="M331.593 150.228C330.423 160.651 321.888 169.061 310.979 169.076C301.278 169.156 291.55 158.548 292.295 148.506C292.758 143.691 294.619 139.154 298.462 135.329C302.518 131.314 307.651 129.777 312.909 129.658C322.408 129.567 331.913 140.567 331.593 150.228Z" fill="white" fill-opacity="0.85"/>
<path d="M286.916 841.663C286.742 852.341 278.24 860.148 267.162 859.549C256.689 858.982 248.675 850.281 249.464 839.435C250.253 828.589 258.521 821.374 269.196 821.952C280.475 822.562 287.726 830.415 286.916 841.663Z" fill="white" fill-opacity="0.85"/>
<path d="M241.875 210.505C230.988 210.118 223.323 202.444 223.752 190.772C224.138 179.904 233.827 172.565 243.304 172.876C253.979 173.453 262.406 181.975 261.405 193.011C260.785 204.471 253.154 211.116 241.875 210.505Z" fill="white" fill-opacity="0.85"/>
<path d="M96.3334 585.753C84.8419 585.333 78.4072 577.322 79.0163 566.063C79.5927 555.407 87.2678 547.958 98.5578 548.367C109.244 548.744 117.224 558.048 116.468 568.291C115.467 579.327 106.573 586.912 96.3334 585.753Z" fill="white" fill-opacity="0.85"/>
<path d="M824.489 792.305C824.315 802.983 816.069 809.796 805.181 809.409C795.1 809.065 786.684 800.342 787.249 789.887C787.782 780.036 798.141 771.522 807.194 772.214C816.638 773.128 826.083 781.503 824.489 792.305Z" fill="white" fill-opacity="0.85"/>
<path d="M932.495 584.407C933.034 593.107 923.214 602.86 913.176 601.712C902.534 600.531 895.495 592.488 895.669 581.81C895.766 572.54 906.136 563.825 915.581 564.739C925.428 565.675 933.665 573.985 932.495 584.407Z" fill="white" fill-opacity="0.85"/>
<path d="M399.129 107.907C399.87 116.618 389.669 125.947 379.408 125.19C370.546 124.711 361.177 114.928 362.102 105.299C363.037 95.4696 371.752 87.4721 382.013 88.2288C392.062 89.1757 400.288 97.6864 399.129 107.907Z" fill="white" fill-opacity="0.85"/>
<path d="M919.286 638.136C919.314 648.825 909.848 655.773 900.371 655.462C890.289 655.119 881.737 645.179 882.651 635.751C883.81 625.53 892.078 618.315 902.181 618.256C911.468 618.355 921.038 628.149 919.286 638.136Z" fill="white" fill-opacity="0.85"/>
<path d="M633.246 104.24C633.497 114.537 624.222 121.697 614.532 121.577C603.846 121.2 596.323 110.913 596.567 102.659C596.866 93.3992 607.47 84.0924 616.321 84.7728C624.982 85.2414 634.999 94.2522 633.246 104.24Z" fill="white" fill-opacity="0.85"/>
<path d="M188.209 761.917C187.687 771.568 178.378 779.332 168.487 779.2C159.201 779.101 150.501 768.145 151.383 759.32C152.318 749.49 161.001 742.096 170.69 742.217C179.966 742.517 189.493 753.114 188.209 761.917Z" fill="white" fill-opacity="0.85"/>
<path d="M145.282 692.851C145.778 702.355 134.402 711.016 125.561 710.134C115.714 709.198 108.283 700.932 108.424 690.857C108.668 682.603 118.107 672.427 128.145 673.575C137.992 674.511 145.815 683 145.282 692.851Z" fill="white" fill-opacity="0.85"/>
<path d="M689.109 117.142C689.126 128.032 678.854 134.937 669.78 134.647C661.712 134.413 651.462 125.994 652.43 115.561C653.377 105.53 661.455 98.1031 671.367 97.8328C680.262 97.709 690.796 108.361 689.109 117.142Z" fill="white" fill-opacity="0.85"/>
<path d="M577.574 91.549C578.718 100.281 566.089 109.68 557.853 108.832C550.02 108.005 540.172 99.6077 541.151 88.9737C542.054 79.747 549.985 71.3038 560.638 72.2833C571.09 73.252 578.151 80.8931 577.574 91.549Z" fill="white" fill-opacity="0.85"/>
<path d="M600.303 937.257C590.401 937.326 582.453 927.419 582.942 918.372C583.475 908.52 592.168 900.924 602.048 901.257C610.921 901.536 619.729 910.481 619.398 920.344C619.322 929.212 608.92 938.53 600.303 937.257Z" fill="white" fill-opacity="0.85"/>
<path d="M945.399 528.847C945.513 537.927 935.971 546.283 926.102 545.749C918.247 545.324 908.421 536.525 909.177 526.283C909.612 518.24 919.421 508.689 928.876 509.402C937.537 509.871 946.917 519.452 945.399 528.847Z" fill="white" fill-opacity="0.85"/>
<path d="M174.752 252.647C163.93 251.053 157.811 244.673 158.007 233.593C158.126 223.921 167.222 216.347 176.911 216.468C185.392 216.524 195.11 227.333 194.038 235.946C193.113 245.575 184.42 253.17 174.752 252.647Z" fill="white" fill-opacity="0.85"/>
<path d="M870.329 691.746C870.394 683.079 878.537 674.445 889.033 674.61C899.528 674.774 907.209 685.877 906.562 694.109C905.637 703.738 896.955 711.132 887.075 710.8C876.59 710.434 869.089 699.744 870.329 691.746Z" fill="white" fill-opacity="0.85"/>
<path d="M523.344 78.3316C522.186 88.5526 513.928 95.5667 504.048 95.2338C495.376 94.9664 486.241 84.5917 487.313 75.9791C488.44 66.3612 496.338 58.5211 506.387 59.468C517.644 60.4803 522.756 66.8061 523.344 78.3316Z" fill="white" fill-opacity="0.85"/>
<path d="M869.223 260.373C879.272 261.32 886.344 268.76 885.969 279.427C885.615 289.691 874.93 296.776 866.873 296.34C859.018 295.915 849.214 286.714 850.139 277.085C851.096 266.853 860.159 259.883 869.223 260.373Z" fill="white" fill-opacity="0.85"/>
<path d="M744.357 130.213C742.838 139.608 736.584 146.932 725.485 146.735C716.399 146.647 708.62 137.354 709.109 128.306C709.599 119.259 718.526 111.071 727.579 111.762C738.221 112.943 744.019 121.524 744.357 130.213Z" fill="white" fill-opacity="0.85"/>
<path d="M909.865 364.199C898.439 362.573 893.294 356.85 893.479 345.972C893.62 335.897 902.057 329.296 911.736 329.618C920.81 329.907 929.058 338.016 928.122 347.846C927.366 358.089 920.774 364.185 909.865 364.199Z" fill="white" fill-opacity="0.85"/>
<path d="M211.185 845.027C207.402 844.016 203.205 843.184 200.156 839.793C196.917 836.189 194.952 831.445 195 826.81C195.261 821.985 197.928 817.491 201.75 814.069C205.146 811.026 209.229 810.239 213.268 810.255C222.163 810.132 230.345 819.447 229.856 828.494C229.355 837.743 220.651 845.539 211.185 845.027Z" fill="white" fill-opacity="0.85"/>
<path d="M101.316 624.334C101.143 635.012 90.3103 641.08 83.2826 640.297C75.2369 639.66 66.3091 632.926 67.321 621.689C68.3655 609.848 76.2803 605.437 85.3439 605.927C94.4074 606.418 101.936 612.874 101.316 624.334Z" fill="white" fill-opacity="0.85"/>
<path d="M824.677 228.725C813.855 227.131 808.149 220.572 807.877 210.677C807.724 206.03 810.369 201.939 813.777 198.696C817.397 195.262 822.127 193.703 826.346 194.133C830.777 194.372 835.099 196.623 838.338 200.226C841.578 203.829 842.547 208.318 842.52 212.551C842.433 221.62 833.751 229.014 824.677 228.725Z" fill="white" fill-opacity="0.85"/>
<path d="M957.54 472.439C957.377 482.916 948.771 488.903 939.909 488.423C931.047 487.944 923.083 482.069 923.48 471C923.8 461.338 931.878 453.911 941.546 454.434C950.408 454.914 957.828 463.381 957.54 472.439Z" fill="white" fill-opacity="0.85"/>
<path d="M437.529 936.517C436.571 946.749 429.979 952.845 419.696 952.49C410.018 952.168 403.169 944.337 403.49 934.676C403.789 925.416 412.068 918 421.333 918.501C430.99 919.225 437.86 926.654 437.529 936.517Z" fill="white" fill-opacity="0.85"/>
<path d="M68.3068 427.964C78.1761 428.497 84.442 435.894 84.5242 445.577C84.492 453.641 75.5323 462.432 66.6919 461.551C57.2363 460.837 50.6111 452.615 50.8665 444.16C51.1545 435.101 59.4882 426.68 68.3068 427.964Z" fill="white" fill-opacity="0.85"/>
<path d="M383.288 923.501C383.223 932.168 376.332 940.062 365.668 939.284C355.205 938.516 349.756 930.962 350.055 921.703C350.152 912.432 358.23 905.005 367.506 905.306C376.771 905.807 384.752 915.111 383.288 923.501Z" fill="white" fill-opacity="0.85"/>
<path d="M742.416 890.501C743.178 898.81 732.831 907.122 724.997 906.295C715.563 905.18 709.265 898.387 709.172 888.905C709.013 880.629 718.556 872.273 727.004 872.931C735.453 873.59 743.901 881.709 742.416 890.501Z" fill="white" fill-opacity="0.85"/>
<path d="M81.4011 372.615C90.9111 372.323 97.7269 380.758 97.2374 389.805C96.7806 398.249 90.4937 406.177 79.8188 405.599C69.9496 405.065 63.651 398.272 64.1839 388.42C64.5699 377.552 73.1758 371.565 81.4011 372.615Z" fill="white" fill-opacity="0.85"/>
<path d="M891.655 749.359C892.227 757.456 882.897 765.622 874.046 764.941C864.993 764.25 857.698 757.201 858.21 747.752C858.721 738.302 866.543 731.869 875.819 732.17C884.713 732.046 893.086 741.573 891.655 749.359Z" fill="white" fill-opacity="0.85"/>
<path d="M475.368 965.181C466.653 965.718 459.309 955.843 459.957 947.611C460.593 939.579 467.909 931.305 477.555 932.23C486.798 933.133 493.478 940.35 492.967 949.8C492.488 958.646 484.432 965.671 475.368 965.181Z" fill="white" fill-opacity="0.85"/>
<path d="M272.284 137.543C271.806 146.389 263.548 153.403 254.495 152.712C245.443 152.021 239.188 144.423 239.508 134.762C239.796 125.703 248.625 119.325 257.085 119.783C264.537 120.186 273.993 128.36 272.284 137.543Z" fill="white" fill-opacity="0.85"/>
<path d="M808.956 847.925C809.326 856.011 801.227 863.84 791.962 863.339C782.485 863.028 775.935 853.398 776.762 845.578C777.666 836.352 784.66 830.277 794.148 830.387C802.428 830.432 810.599 839.948 808.956 847.925Z" fill="white" fill-opacity="0.85"/>
<path d="M310.263 925.398C301.972 925.554 294.307 917.88 294.606 908.621C294.916 899.161 304.349 892.815 311.992 893.43C321.246 894.132 327.724 901.339 327.638 910.408C327.371 919.064 317.862 926.817 310.263 925.398Z" fill="white" fill-opacity="0.85"/>
<path d="M465.5 64.7169C464.967 74.5686 458.196 80.2515 448.697 80.3426C439.399 80.4446 432.659 70.6028 433.062 63.1638C433.497 55.1216 440.611 46.8359 450.067 47.549C460.105 48.697 466.022 55.0664 465.5 64.7169Z" fill="white" fill-opacity="0.85"/>
<path d="M92.3524 349.414C83.2997 348.723 77.2351 341.337 77.5449 331.877C77.9691 324.036 85.0617 316.152 95.1214 316.898C103.57 317.556 110.451 324.784 109.929 334.435C109.684 342.689 100.757 350.877 92.3524 349.414Z" fill="white" fill-opacity="0.85"/>
<path d="M340.67 94.4612C341.073 101.944 332.739 110.365 323.877 109.886C314.813 109.396 308.052 99.9559 308.645 92.7288C309.505 84.3063 316.374 76.8139 325.639 77.3151C334.893 78.0174 341.339 85.8268 340.67 94.4612Z" fill="white" fill-opacity="0.85"/>
<path d="M55.4575 482.519C62.5395 482.297 71.021 489.813 70.733 498.871C70.4124 508.533 60.3747 514.846 53.739 514.285C45.7042 513.447 37.974 506.98 38.4743 497.731C38.9855 488.282 47.1995 482.072 55.4575 482.519Z" fill="white" fill-opacity="0.85"/>
<path d="M658.004 916.181C667.225 917.487 672.963 923.443 672.844 933.115C672.735 942.587 663.716 948.753 656.073 948.138C648.43 947.523 640.498 941.044 641.434 931.215C642.359 921.586 648.695 916.484 658.004 916.181Z" fill="white" fill-opacity="0.85"/>
<path d="M937.739 416.521C938.25 407.072 946.328 399.644 954.183 400.069C962.038 400.494 969.861 408.983 969.437 416.824C969.034 424.263 959.683 432.831 952.454 432.037C948.235 431.607 944.729 429.199 941.86 426.221C938.991 423.243 937.799 419.146 937.739 416.521Z" fill="white" fill-opacity="0.85"/>
<path d="M986.049 595.168C985.179 603.792 977.738 610.648 969.3 609.789C960.46 608.907 954.319 602.929 954.629 593.469C954.939 584.008 963.12 578.402 971.389 578.647C979.435 579.284 986.294 586.914 986.049 595.168Z" fill="white" fill-opacity="0.85"/>
<path d="M188.2 194.495C178.788 192.978 173.622 187.657 173.529 178.175C173.572 169.91 181.628 162.885 189.685 163.321C197.943 163.768 205.183 171.822 204.737 180.065C204.101 188.096 196.458 194.942 188.2 194.495Z" fill="white" fill-opacity="0.85"/>
<path d="M643.935 48.5595C643.309 56.3897 634.828 63.795 627.376 63.3918C620.125 62.9996 611.932 53.8857 612.525 46.6587C612.927 39.2197 621.833 31.4341 629.476 32.0492C637.129 32.4633 644.56 40.7293 643.935 48.5595Z" fill="white" fill-opacity="0.85"/>
<path d="M798.194 143.207C797.133 151.619 790.901 158.541 782.039 158.062C773.367 157.794 766.878 150.789 767.367 141.741C767.835 133.096 773.42 126.946 783.333 126.675C791.199 126.899 798.428 135.154 798.194 143.207Z" fill="white" fill-opacity="0.85"/>
<path d="M516.794 961.171C517.038 952.917 524.893 945.881 533.151 946.328C541.208 946.763 548.258 954.606 547.822 962.648C547.387 970.69 539.31 978.117 531.656 977.703C524.002 977.289 516.571 969.023 516.794 961.171Z" fill="white" fill-opacity="0.85"/>
<path d="M846.111 803.355C846.514 795.916 855.218 788.12 862.681 788.322C869.932 788.714 878.337 797.638 877.543 804.854C876.705 812.875 870.238 820.389 860.794 819.475C851.741 818.783 846.82 812.669 846.111 803.355Z" fill="white" fill-opacity="0.85"/>
<path d="M114.485 731.917C123.124 732.788 129.379 740.385 129.357 748.248C129.135 756.1 121.057 763.527 113 763.091C105.346 762.677 97.6489 755.607 98.1275 746.76C98.7857 738.327 105.568 732.443 114.485 731.917Z" fill="white" fill-opacity="0.85"/>
<path d="M972.541 650.696C971.85 659.732 964.654 665.796 956.386 665.55C948.318 665.315 941.268 657.473 941.714 649.23C941.959 640.976 950.597 634.386 957.658 634.566C964.315 634.724 972.851 641.235 972.541 650.696Z" fill="white" fill-opacity="0.85"/>
<path d="M270.79 897.049C270.556 905.102 263.316 911.969 254.857 911.512C251.03 911.305 247.448 910.304 244.378 907.315C241.117 904.114 239.745 899.604 239.75 895.773C239.745 892.143 241.573 888.209 244.758 885.357C248.154 882.314 252.057 881.114 256.096 881.131C264.175 881.165 271.023 888.996 270.79 897.049Z" fill="white" fill-opacity="0.85"/>
<path d="M571.366 49.4732C562.896 49.2166 556.641 41.6191 557.49 33.3977C558.148 24.9643 564.146 18.6346 573.4 19.3369C581.648 19.9847 588.518 27.4138 587.489 35.2222C586.673 42.8405 580.811 50.3874 571.366 49.4732Z" fill="white" fill-opacity="0.85"/>
<path d="M122.261 278.239C121.167 287.254 115.202 292.98 105.926 292.68C98.2611 292.467 90.4273 284.179 91.4449 276.572C92.4733 268.764 98.537 261.228 107.993 261.941C115.826 262.768 122.549 269.181 122.261 278.239Z" fill="white" fill-opacity="0.85"/>
<path d="M71.6836 664.27C78.7657 664.048 86.5394 669.711 85.8159 679.351C85.3156 688.599 78.5876 693.478 70.3188 693.232C61.8485 692.976 55.9528 686.204 56.1864 678.151C56.4636 669.294 64.4653 663.274 71.6836 664.27Z" fill="white" fill-opacity="0.85"/>
<path d="M56.1853 554.948C56.3545 563.022 49.5612 569.107 40.8896 568.84C32.2071 568.774 26.3983 560.394 26.5667 553.547C26.6098 545.282 35.2267 539.094 42.0747 539.464C49.5161 540.069 57.4695 546.145 56.1853 554.948Z" fill="white" fill-opacity="0.85"/>
<path d="M170.972 815.428C170.76 823.079 164.93 830.023 155.485 829.109C147.249 828.26 141.691 822.716 141.979 813.658C142.311 803.796 149.801 799.765 157.667 799.988C166.73 800.479 172.011 807.419 170.972 815.428Z" fill="white" fill-opacity="0.85"/>
<path d="M408.217 51.9392C407.771 60.1825 401.201 65.8763 392.943 65.4296C384.282 64.9611 378.969 58.6243 379.447 49.778C379.893 41.5348 386.463 35.8409 394.912 36.4996C402.767 36.9245 408.652 43.8971 408.217 51.9392Z" fill="white" fill-opacity="0.85"/>
<path d="M765.639 901.84C765.693 893.374 772.252 887.881 780.521 888.127C789.595 888.416 794.44 895.937 794.25 903.186C794.017 911.239 787.011 917.514 779.167 916.888C771.715 916.485 764.556 910.653 765.639 901.84Z" fill="white" fill-opacity="0.85"/>
<path d="M881.811 210.643C888.725 209.807 896.335 218.486 895.742 225.714C895.204 231.935 887.507 239.786 880.468 239.204C873.027 238.6 865.754 231.149 866.537 224.134C867.408 215.51 873.151 210.175 881.811 210.643Z" fill="white" fill-opacity="0.85"/>
<path d="M254.807 79.7342C254.012 72.0288 263.266 65.2703 269.891 66.0319C277.724 66.859 283.451 73.0164 283.217 81.0695C282.75 89.7148 276.816 94.8382 268.335 94.7827C260.458 94.7598 253.599 87.1296 254.807 79.7342Z" fill="white" fill-opacity="0.85"/>
<path d="M923.558 305.254C917.281 305.519 909.551 299.052 909.785 290.999C910.242 282.554 917.808 277.116 924.667 277.286C931.537 277.254 938.227 284.27 938.015 291.921C937.792 299.773 929.758 306.396 923.558 305.254Z" fill="white" fill-opacity="0.85"/>
<path d="M996.841 541.309C996.45 548.547 989.221 555.213 982.171 554.832C975.323 554.461 968.676 546.641 968.845 539.794C969.035 532.545 978.087 525.776 983.716 526.282C991.157 526.886 997.244 533.87 996.841 541.309Z" fill="white" fill-opacity="0.85"/>
<path d="M726.894 945.92C726.829 954.587 718.489 959.379 712.436 959.253C705.174 959.062 698.854 952.67 699.088 944.617C699.3 936.966 706.093 930.881 713.545 931.284C719.778 931.823 727.541 937.687 726.894 945.92Z" fill="white" fill-opacity="0.85"/>
<path d="M587.415 988.785C579.729 988.974 573.539 980.17 573.865 974.139C574.415 967.716 581.273 960.424 588.725 960.828C594.768 961.155 602.689 967.834 602.074 975.463C601.661 983.103 595.08 988.998 587.415 988.785Z" fill="white" fill-opacity="0.85"/>
<path d="M683.347 74.2838C676.309 73.7014 669.776 67.5004 670.19 59.8603C670.826 51.829 677.374 46.5373 685.039 46.7503C691.898 46.9197 698.757 54.5499 697.985 61.3639C697 68.3681 691.627 74.3284 683.347 74.2838Z" fill="white" fill-opacity="0.85"/>
<path d="M133.978 222.211C132.971 229.618 127.621 235.176 119.542 235.142C112.673 235.174 106.015 227.555 106.385 220.719C106.743 214.084 113.961 207.619 120.82 207.788C127.265 208.137 134.147 215.365 133.978 222.211Z" fill="white" fill-opacity="0.85"/>
<path d="M978.323 360.845C977.083 368.844 971.351 373.978 963.686 373.765C956.827 373.596 950.382 365.786 950.953 358.961C951.524 352.136 958.742 345.671 965.388 346.03C972.226 346.602 978.693 354.009 978.323 360.845Z" fill="white" fill-opacity="0.85"/>
<path d="M42.0404 611.045C41.5018 617.267 33.8485 624.314 27.6047 623.976C21.1595 623.628 14.1205 615.584 14.6809 608.96C15.2521 602.136 22.9163 594.888 29.318 596.041C36.9282 597.259 42.2632 603.193 42.0404 611.045Z" fill="white" fill-opacity="0.85"/>
<path d="M185.722 882.566C186.103 875.53 193.119 869.053 200.169 869.435C206.815 869.794 213.685 877.223 213.114 884.048C212.723 891.286 205.728 897.36 198.488 896.767C191.248 896.174 185.341 889.603 185.722 882.566Z" fill="white" fill-opacity="0.85"/>
<path d="M851.183 156.963C851.417 163.831 843.862 169.068 836.834 168.285C829.807 167.502 825.021 162.605 825.848 154.786C826.474 146.955 830.954 142.56 839.021 142.795C846.484 142.997 852.369 149.969 851.183 156.963Z" fill="white" fill-opacity="0.85"/>
<path d="M198.872 135.386C192.394 135.641 186.678 129.282 187.695 121.675C188.68 114.671 194.189 109.928 201.44 110.32C207.079 110.625 213.422 116.614 212.807 124.243C212.203 131.671 205.274 136.539 198.872 135.386Z" fill="white" fill-opacity="0.85"/>
<path d="M517.195 9.03719C524.288 8.61433 529.367 15.5433 529.242 21.5858C529.074 28.4325 522.683 34.5394 516.037 34.1798C509.793 33.8421 503.707 26.8586 504.033 20.827C504 13.9694 510.995 7.8952 517.195 9.03719Z" fill="white" fill-opacity="0.85"/>
<path d="M956.181 706.674C955.789 713.912 950.727 717.873 943.041 718.062C936.372 718.104 930.678 711.344 931.619 705.144C932.425 697.726 937.53 692.961 944.972 693.566C951.82 693.936 956.562 699.637 956.181 706.674Z" fill="white" fill-opacity="0.85"/>
<path d="M982.364 484.066C982.129 477.197 988.656 472.307 994.899 472.645C1001.54 473.206 1006.7 478.526 1006.53 485.373C1006.25 490.601 1000.63 497.354 993.796 496.783C986.959 496.211 981.994 490.901 982.364 484.066Z" fill="white" fill-opacity="0.85"/>
<path d="M740.581 61.8535C747.788 63.0499 751.61 67.0879 751.621 74.3476C751.474 80.7922 745.541 85.9156 739.096 85.567C733.053 85.2401 727.337 78.8816 727.865 72.8609C728.404 66.6391 734.135 61.5048 740.581 61.8535Z" fill="white" fill-opacity="0.85"/>
<path d="M928.694 774.149C922.462 773.61 918.64 769.572 918.237 762.089C917.915 756.829 921.475 750.771 925.982 749.603C933.353 747.784 940.283 750.377 942.629 755.545C943.168 756.784 943.146 757.186 942.275 758.349C940.746 760.484 939.619 762.641 937.507 764.342C936.233 765.483 934.693 767.819 934.16 770.21C933.392 773.193 931.313 774.29 928.694 774.149Z" fill="white" fill-opacity="0.85"/>
<path d="M462.123 22.5926C453.44 22.5262 448.448 13.9888 451.333 5.47424C452.302 2.50202 453.543 1.96423 456.765 2.13857C458.981 2.25842 461.196 2.37827 463.412 2.49813C464.621 2.5635 465.829 2.62888 466.89 1.67809C468.589 0.156823 470.369 0.858048 471.692 2.54275C474.92 6.34695 475.497 10.6127 473.837 15.1606C471.954 20.0998 467.572 22.6858 462.123 22.5926Z" fill="white" fill-opacity="0.85"/>
<path d="M349.861 40.3134C349.769 45.7527 343.166 52.0497 337.537 51.5436C330.297 50.9503 326.911 46.331 326.263 39.6417C326.034 36.4031 327.787 33.8765 329.73 31.562C332.109 28.666 335.936 28.873 338.788 28.4224C343.878 27.6895 349.953 34.874 349.861 40.3134Z" fill="white" fill-opacity="0.85"/>
<path d="M52.0629 321.223C51.6061 329.667 42.5647 336.235 34.3938 334.18C32.4014 333.669 31.6827 332.017 30.1149 331.126C29.723 330.903 29.7665 330.099 30.1802 329.919C31.835 329.202 31.1272 327.349 31.7859 326.377C33.5494 323.649 33.9249 320.443 35.2965 317.493C36.4558 314.732 38.2194 312.005 38.584 309C38.9594 305.794 40.4128 305.066 43.3579 306.637C48.0939 308.708 53.1514 316.039 52.0629 321.223Z" fill="white" fill-opacity="0.85"/>
<path d="M3.42522 436.149C3.72452 434.35 3.41958 432.519 5.1179 430.998C6.6148 429.466 5.96142 426.607 6.08106 424.396C6.53263 419.782 6.94633 419.603 11.6115 419.251C17.4851 418.963 20.7351 422.365 23.5387 426.55C25.2318 428.86 23.8441 435.842 22.0914 438.369C19.0323 442.639 15.2872 444.655 9.88171 443.757C4.2639 443.05 3.1098 441.98 3.42522 436.149Z" fill="white" fill-opacity="0.85"/>
<path d="M354.722 966.115C359.992 965.795 362.817 969.577 365.218 973.74C367.058 977.066 365.66 984.249 362.698 986.711C361.849 987.471 360.521 989.618 359.04 987.118C358.48 986.281 357.249 986.617 356.242 986.563C354.228 986.454 352.192 986.747 350.69 984.65C350.118 984.014 348.295 984.117 347.086 984.051C342.666 983.611 341.332 982.127 341.571 977.704C341.729 971.058 347.472 965.723 354.722 966.115Z" fill="white" fill-opacity="0.85"/>
<path d="M115.022 804.134C114.951 809.171 112.148 812.448 108.37 815.066C107.32 815.816 106.727 815.582 105.975 814.533C103.34 810.963 99.4318 808.533 98.0706 803.822C97.3846 801.567 94.6518 799.806 92.9479 797.697C90.4818 794.741 90.8028 792.54 93.9219 790.894C98.6958 788.531 103.361 788.178 108.043 791.255C112.512 794.521 115.125 798.494 115.022 804.134Z" fill="white" fill-opacity="0.85"/>
<path d="M848.118 870.813C840.878 870.219 837.906 865.421 837.628 859.356C837.306 854.096 844.301 848.022 849.336 848.295C854.573 848.578 860.659 855.561 859.985 860.566C859.321 865.369 854.553 871.362 848.118 870.813Z" fill="white" fill-opacity="0.85"/>
<path d="M463.449 1006.28C459.622 1006.07 455.796 1005.86 451.767 1005.64C449.753 1005.54 448.98 1004.89 449.1 1002.68C449.067 995.819 456.018 990.549 461.287 990.229C468.593 989.616 473.889 992.524 476.954 999.344C476.944 999.545 477.145 999.556 477.134 999.757C477.63 1001.8 478.114 1004.04 477.211 1005.81C476.296 1007.78 474.135 1006.65 472.322 1006.55C469.481 1006.8 466.47 1006.44 463.449 1006.28Z" fill="white" fill-opacity="0.85"/>
<path d="M409.077 980.751C414.951 980.463 417.608 983.632 419.84 987.18C421.5 990.093 420.123 996.875 417.799 998.765C416.313 1000.1 414.985 1002.24 411.882 999.857C410.336 998.563 407.26 999.405 404.854 999.073C400.624 998.844 399.862 997.997 399.095 993.519C398.528 989.052 399.519 985.678 402.926 982.434C405.452 980.555 407.646 981.077 409.077 980.751Z" fill="white" fill-opacity="0.85"/>
<path d="M25.8381 365.375C31.8696 365.903 35.1196 369.305 34.9948 375.348C34.9786 379.38 34.1895 382.765 30.4227 385.182C25.8284 387.959 17.4452 386.094 15.4907 381.148C14.5815 379.284 14.3092 376.85 16.0075 375.329C17.2813 374.188 17.1342 373.172 17.1995 371.965C17.6837 366.749 19.1697 365.418 24.4282 365.299C24.831 365.321 25.4353 365.353 25.8381 365.375Z" fill="white" fill-opacity="0.85"/>
<path d="M62.3686 746.842C59.1294 743.239 57.5125 739.522 55.705 735.593C54.4257 733.104 52.542 730.583 51.0721 727.882C49.7819 725.594 50.7072 723.426 53.1785 722.551C58.9486 720.444 66.8637 723.493 69.8035 728.895C72.384 733.471 70.5391 741.437 65.9449 744.213C64.6929 744.952 63.6314 745.902 62.3686 746.842Z" fill="white" fill-opacity="0.85"/>
<path d="M144.868 166.542C144.247 170.542 142.44 174.073 138.695 176.089C134.738 178.294 130.71 178.077 126.812 175.446C124.662 174.12 124.378 171.886 125.908 169.751C126.131 169.36 126.556 168.98 126.969 168.8C130.791 165.377 133.659 160.895 137.491 157.271C138.765 156.13 139.592 155.772 140.545 156.831C142.821 159.576 144.672 162.7 144.868 166.542Z" fill="white" fill-opacity="0.85"/>
<path d="M635.956 991.411C631.514 991.372 631.715 991.383 631.709 987.753C631.633 981.7 635.89 977.696 641.213 976.371C647.152 974.877 653.233 978.231 655.367 983.589C656.096 985.04 656.445 986.067 653.772 986.93C649.858 988.332 645.955 989.532 641.894 989.917C639.668 989.999 638.084 993.139 635.956 991.411Z" fill="white" fill-opacity="0.85"/>
<path d="M0.930068 500.943C-0.213153 499.671 0.0643979 498.275 0.129656 497.068C0.477704 490.635 0.825749 484.201 1.16292 477.968C1.4022 473.545 2.21873 473.388 5.72452 475.795C9.82368 478.437 12.8396 482.431 12.7474 487.87C12.6551 493.31 9.6287 496.977 5.04534 499.552C3.81511 499.889 2.38346 500.215 0.930068 500.943Z" fill="white" fill-opacity="0.85"/>
<path d="M286.585 959.808C292.333 950.641 304.853 950.714 309.791 960.256C311.07 962.745 310.896 965.962 310.14 968.744C309.427 970.722 307.222 970.401 306.661 969.564C304.375 967.021 300.907 967.64 298.387 965.689C294.903 962.879 290.292 962.226 286.585 959.808Z" fill="white" fill-opacity="0.85"/>
<path d="M939.717 249.265C932.727 251.508 927.175 249.595 923.865 243.568C921.845 239.829 922.237 232.591 925.018 229.717C926.727 227.995 928.529 228.294 929.014 230.538C929.341 231.967 930.114 232.614 930.876 233.462C932.58 235.57 934.071 237.869 935.149 240.347C936.597 243.45 938.884 245.994 939.717 249.265Z" fill="white" fill-opacity="0.85"/>
<path d="M1005.39 435.506C1005.13 436.701 1005.82 438.755 1004.18 439.271C1002.33 439.776 1000.97 438.896 999.634 437.412C995.028 432.929 994.837 425.256 999.328 420.659C999.965 420.089 1000.61 419.317 1001.79 419.986C1002.76 420.644 1003.76 420.899 1003.48 422.296C1003.38 424.105 1003.3 425.714 1003.2 427.523C1003.16 428.327 1003.09 429.534 1003.48 429.756C1006.24 431.115 1005.3 433.484 1005.39 435.506Z" fill="white" fill-opacity="0.85"/>
<path d="M799.025 94.2533C798.758 95.4487 796.053 96.9155 794.665 96.4371C790.903 95.0238 787.577 93.029 786.395 88.7306C786.226 88.1166 785.856 87.4916 786.684 87.1331C787.511 86.7746 788.54 86.427 788.91 87.0519C791.153 90.3995 794.925 91.6118 798.273 93.2044C798.867 93.4382 799.046 93.8512 799.025 94.2533Z" fill="white" fill-opacity="0.85"/>
<path d="M29.1475 666.405C28.8809 667.6 28.8265 668.605 27.8303 668.35C27.0246 668.306 25.4133 668.219 25.68 667.024C26.4365 664.241 24.1175 662.301 24.0466 659.878C24.1009 658.872 23.7307 658.247 22.544 657.78C21.1667 657.101 21.4334 655.905 22.2935 654.943C23.3658 653.792 23.7033 655.02 24.4764 655.666C28.3741 658.297 27.9226 662.91 29.1475 666.405Z" fill="white" fill-opacity="0.85"/>
<path d="M154.774 868.39C152.129 865.021 148.813 862.825 145.308 860.418C144.524 859.972 143.941 859.537 144.398 858.554C144.632 857.961 145.438 858.005 146.042 858.038C150.283 858.065 155.046 863.364 154.774 868.39Z" fill="white" fill-opacity="0.85"/>
<path d="M514.282 1007.61C516.753 1006.74 519.213 1006.07 521.788 1007.01C522.583 1007.26 523.378 1007.5 523.122 1008.5C523.078 1009.3 522.273 1009.26 521.668 1009.22C519.252 1009.09 516.835 1008.96 514.216 1008.82C514.429 1008.63 514.26 1008.02 514.282 1007.61Z" fill="white" fill-opacity="0.85"/>
<path d="M57.5692 271.715C57.3404 268.476 59.6865 266.183 59.904 262.162C61.6462 267.298 61.6027 268.102 57.5692 271.715Z" fill="white" fill-opacity="0.85"/>
<path d="M409.864 10.2884C408.198 11.2065 406.386 11.1084 403.99 10.5756C406.135 8.27187 408.084 9.58715 409.864 10.2884Z" fill="white" fill-opacity="0.85"/>
<path d="M907.815 809.113C907.771 809.917 907.537 810.51 906.732 810.466C905.926 810.422 905.757 809.808 905.79 809.205C906.035 808.412 906.29 807.418 907.287 807.673C907.891 807.706 907.847 808.51 907.815 809.113Z" fill="white" fill-opacity="0.85"/>
</svg>
